<?xml version="1.0" encoding="UTF-8" standalone="no"?>
<!-- Created with Inkscape (http://www.inkscape.org/) -->

<svg
   width="180"
   height="180"
   viewBox="0 0 180 180"
   version="1.1"
   id="svg5"
   inkscape:version="1.2 (dc2aeda, 2022-05-15)"
   sodipodi:docname="ro-crate-java-logo.svg"
   xmlns:inkscape="http://www.inkscape.org/namespaces/inkscape"
   xmlns:sodipodi="http://sodipodi.sourceforge.net/DTD/sodipodi-0.dtd"
   xmlns="http://www.w3.org/2000/svg"
   xmlns:svg="http://www.w3.org/2000/svg">
  <sodipodi:namedview
     id="namedview7"
     pagecolor="#ffffff"
     bordercolor="#000000"
     borderopacity="0.25"
     inkscape:showpageshadow="2"
     inkscape:pageopacity="0.0"
     inkscape:pagecheckerboard="0"
     inkscape:deskcolor="#d1d1d1"
     inkscape:document-units="px"
     showgrid="false"
     showguides="true"
     inkscape:zoom="3.1613006"
     inkscape:cx="89.994604"
     inkscape:cy="89.994604"
     inkscape:window-width="1440"
     inkscape:window-height="847"
     inkscape:window-x="0"
     inkscape:window-y="25"
     inkscape:window-maximized="1"
     inkscape:current-layer="layer1" />
  <defs
     id="defs2">
    <rect
       x="11.440678"
       y="32.033898"
       width="95.338983"
       height="136.52542"
       id="rect63" />
  </defs>
  <g
     inkscape:label="Ebene 1"
     inkscape:groupmode="layer"
     id="layer1">
    <text
       xml:space="preserve"
       id="text61"
       style="white-space:pre;shape-inside:url(#rect63);display:inline;fill:#000000" />
    <g
       aria-label="{"
       id="text69"
       style="font-size:133.333px">
      <path
         d="m 61.19776,153.4113 h -9.7656 q -11.653616,0 -18.945264,-6.5104 -7.226544,-6.44529 -7.226544,-18.68485 v -9.70049 q 0,-11.00258 -5.403632,-17.18746 Q 14.453088,95.078117 3.3203042,95.078117 H 1.4156103e-7 V 84.921893 H 3.3203042 q 11.1327838,0 16.5364158,-6.18488 5.403632,-6.249984 5.403632,-17.25256 v -9.700496 q 0,-12.239552 7.226544,-18.684848 7.291648,-6.5104 18.945264,-6.5104 h 9.7656 v 8.984352 h -7.421856 q -8.854144,0 -12.890592,4.101552 -3.971344,4.101552 -3.971344,13.216112 v 11.3932 q 0,9.049456 -5.013008,15.234336 -5.013008,6.119776 -13.932256,9.700496 v 1.562496 q 8.919248,3.58072 13.932256,9.765597 5.013008,6.11978 5.013008,15.16924 v 11.3932 q 0,9.11456 3.971344,13.21611 4.036448,4.10155 12.890592,4.10155 h 7.421856 z"
         style="fill:#916f6f"
         id="path8032" />
    </g>
    <g
       aria-label="}"
       id="text123"
       style="font-size:133.333px">
      <path
         d="m 180,95.078117 h -3.3203 q -11.13279,0 -16.53642,6.249983 -5.40363,6.18488 -5.40363,17.18746 v 9.70049 q 0,12.23956 -7.29165,18.68485 -7.22654,6.5104 -18.88016,6.5104 h -9.7656 v -8.98435 h 7.42186 q 8.85414,0 12.82548,-4.10155 4.03645,-4.10155 4.03645,-13.21611 v -11.3932 q 0,-9.04946 5.01301,-15.16924 5.01301,-6.184877 13.93226,-9.765597 v -1.562496 q -8.91925,-3.58072 -13.93226,-9.700496 -5.01301,-6.18488 -5.01301,-15.234336 v -11.3932 q 0,-9.11456 -4.03645,-13.216112 -3.97134,-4.101552 -12.82548,-4.101552 h -7.42186 v -8.984352 h 9.7656 q 11.65362,0 18.88016,6.5104 7.29165,6.445296 7.29165,18.684848 v 9.700496 q 0,11.002576 5.40363,17.25256 5.40363,6.18488 16.53642,6.18488 H 180 Z"
         style="fill:#916f6f"
         id="path8035" />
    </g>
    <g
       aria-label="~"
       transform="rotate(-90)"
       id="text285"
       style="font-size:45.1795px;fill:#4d4e4c;stroke-width:1.21016">
      <path
         d="m -44.584406,62.989743 q -0.04412,2.18397 -0.507387,4.301759 -0.441206,2.117789 -1.43392,3.772312 -1.014774,1.698643 -2.448694,2.669297 -1.433919,0.970653 -3.63995,0.970653 -2.073668,0 -3.68407,-0.860352 -1.610402,-0.882412 -3.463468,-3.132563 -2.250151,-2.757538 -3.264925,-3.463468 -1.014774,-0.705929 -2.117789,-0.705929 -2.073668,0 -3.176683,1.941306 -1.103016,1.919247 -1.301558,6.243066 h -3.684071 q 0.04412,-2.20603 0.485327,-4.279699 0.463266,-2.095728 1.433919,-3.794372 0.948593,-1.632462 2.470754,-2.625176 1.522161,-1.014774 3.63995,-1.014774 2.051609,0 3.662011,0.860352 1.632462,0.838292 3.507588,3.132563 1.764824,2.16191 2.8899,3.176684 1.125075,0.992713 2.470754,0.992713 2.272211,0 3.331105,-2.22809 1.080955,-2.228091 1.147136,-5.956282 z"
         id="path8044" />
    </g>
    <g
       aria-label="~"
       transform="rotate(-90)"
       id="text289"
       style="font-size:45.1795px;fill:#4d4e4c;stroke-width:1.21016">
      <path
         d="m -44.584406,84.074048 q -0.04412,2.18397 -0.507387,4.301759 -0.441206,2.117789 -1.43392,3.772312 -1.014774,1.698643 -2.448694,2.669296 -1.433919,0.970654 -3.63995,0.970654 -2.073668,0 -3.68407,-0.860352 -1.610402,-0.882412 -3.463468,-3.132563 -2.250151,-2.757538 -3.264925,-3.463468 -1.014774,-0.705929 -2.117789,-0.705929 -2.073668,0 -3.176683,1.941306 -1.103016,1.919247 -1.301558,6.243066 h -3.684071 q 0.04412,-2.20603 0.485327,-4.279699 0.463266,-2.095729 1.433919,-3.794372 0.948593,-1.632462 2.470754,-2.625176 1.522161,-1.014774 3.63995,-1.014774 2.051609,0 3.662011,0.860352 1.632462,0.838291 3.507588,3.132563 1.764824,2.16191 2.8899,3.176684 1.125075,0.992713 2.470754,0.992713 2.272211,0 3.331105,-2.22809 1.080955,-2.228091 1.147136,-5.956282 z"
         id="path8041" />
    </g>
    <g
       aria-label="~"
       transform="rotate(-90)"
       id="text293"
       style="font-size:45.1795px;fill:#4d4e4c;stroke-width:1.21016">
      <path
         d="m -44.584406,105.15835 q -0.04412,2.18397 -0.507387,4.30176 -0.441206,2.11779 -1.43392,3.77231 -1.014774,1.69865 -2.448694,2.6693 -1.433919,0.97065 -3.63995,0.97065 -2.073668,0 -3.68407,-0.86035 -1.610402,-0.88241 -3.463468,-3.13256 -2.250151,-2.75754 -3.264925,-3.46347 -1.014774,-0.70593 -2.117789,-0.70593 -2.073668,0 -3.176683,1.94131 -1.103016,1.91924 -1.301558,6.24306 h -3.684071 q 0.04412,-2.20603 0.485327,-4.27969 0.463266,-2.09573 1.433919,-3.79438 0.948593,-1.63246 2.470754,-2.62517 1.522161,-1.01478 3.63995,-1.01478 2.051609,0 3.662011,0.86035 1.632462,0.8383 3.507588,3.13257 1.764824,2.16191 2.8899,3.17668 1.125075,0.99272 2.470754,0.99272 2.272211,0 3.331105,-2.2281 1.080955,-2.22809 1.147136,-5.95628 z"
         id="path8038" />
    </g>
    <path
       style="fill:#39989f;fill-opacity:1;stroke:#4d4e4c;stroke-width:5.1475;stroke-dasharray:none;stroke-opacity:1"
       d="M 55.142775,77.057826 H 124.8537 c 0,13.776671 -0.0218,56.526214 -34.855465,57.038084 -34.8421,-0.46927 -34.85546,-43.259147 -34.85546,-57.038084 z"
       id="path447"
       sodipodi:nodetypes="cccc" />
    <rect
       style="fill:#4d4e4c;fill-opacity:1;stroke:none;stroke-width:0;stroke-dasharray:none"
       id="rect501"
       width="69.710922"
       height="5.1475"
       x="55.142773"
       y="131.52216" />
  </g>
</svg>
